# AST/ASF file generated using VICON BodyLanguage
# -----------------------------------------------
:version 1.10
:name VICON
:units
  mass 1.0
  length 0.45
  angle deg
:documentation
   .ast/.asf automatically generated from VICON data using
   VICON BodyBuilder and BodyLanguage model FoxedUp or BRILLIANT.MOD
:root
   order TX TY TZ RX RY RZ
   axis XYZ
   position 0 0 0  
   orientation 0 0 0 
:bonedata
  begin
     id 1 
     name lhipjoint
     direction 0.702568 -0.596508 0.388042 
     length 2.56661 
     axis 0 0 0  XYZ
  end
  begin
     id 2 
     name lfemur
     direction 0.34202 -0.939693 0  
     length 6.58374  
     axis 0 0 20  XYZ
    dof rx ry rz
    limits (-160.0 20.0)
           (-70.0 70.0)
           (-60.0 70.0)
  end
  begin
     id 3 
     name ltibia
     direction 0.34202 -0.939693 0   
     length 6.62538   
     axis 0 0 20   XYZ
    dof rx
    limits (-10.0 170.0)
  end
  begin
     id 4 
     name lfoot
     direction 0.10455 -0.287249 0.952133   
     length 2.26699   
     axis -90 7.62852e-016 20   XYZ
    dof rx rz
    limits (-45.0 90.0)
           (-70.0 20.0)
  end
  begin
     id 5 
     name ltoes
     direction 1.53572e-011 -4.22322e-011 1   
     length 1.12949   
     axis -90 7.62852e-016 20   XYZ
    dof rx
    limits (-90.0 20.0)
  end
  begin
     id 6 
     name rhipjoint
     direction -0.728055 -0.574632 0.373811   
     length 2.66432  
     axis 0 0 0  XYZ 
  end
  begin
     id 7 
     name rfemur
     direction -0.34202 -0.939693 0   
     length 6.66732   
     axis 0 0 -20   XYZ
    dof rx ry rz
    limits (-160.0 20.0)
           (-70.0 70.0)
           (-70.0 60.0)
  end
  begin
     id 8 
     name rtibia
     direction -0.34202 -0.939693 0   
     length 6.59288   
     axis 0 0 -20   XYZ
    dof rx
    limits (-10.0 170.0)
 end
 begin
     id 9 
     name rfoot
     direction -0.119193 -0.327479 0.93731   
     length 2.38061  
     axis -90 -7.62852e-016 -20   XYZ
    dof rx rz
    limits (-45.0 90.0)
           (-20.0 70.0)
  end
  begin
     id 10 
     name rtoes
     direction -1.53547e-011 -4.21827e-011 1   
     length 1.17899   
     axis -90 -7.62852e-016 -20   XYZ
    dof rx
    limits (-90.0 20.0)
  end
  begin
     id 11 
     name lowerback
     direction -0.000416114 0.999912 -0.0132284   
     length 2.12109   
     axis 0 0 0   XYZ
    dof rx ry rz
    limits (-20.0 45.0)
           (-30.0 30.0)
           (-30.0 30.0)
  end
  begin
     id 12 
     name upperback
     direction -0.00136371 0.99809 0.0617608   
     length 2.10067   
     axis 0 0 0   XYZ
    dof rx ry rz
    limits (-20.0 45.0)
           (-30.0 30.0)
           (-30.0 30.0)
  end
  begin
     id 13 
     name thorax
     direction -3.43026e-005 0.997776 0.0666515   
     length 2.10618   
     axis 0 0 0   XYZ
    dof rx ry rz
    limits (-20.0 45.0)
           (-30.0 30.0)
           (-30.0 30.0)
  end
  begin
     id 14 
     name lowerneck
     direction 0.0398646 0.998418 0.0396592   
     length 1.83817   
     axis 0 0 0   XYZ
    dof rx ry rz
    limits (-20.0 45.0)
           (-30.0 30.0)
           (-30.0 30.0)
  end
  begin
     id 15 
     name upperneck
     direction -0.0367268 0.961527 -0.272244   
     length 1.81975   
     axis 0 0 0   XYZ
    dof rx ry rz
    limits (-20.0 45.0)
           (-30.0 30.0)
           (-30.0 30.0)
  end
  begin
     id 16
     name head
     direction -0.0182665 0.99536 -0.0944669  
     length 1.86026  
     axis 0 0 0   XYZ
    dof rx ry rz
    limits (-20.0 45.0)
           (-30.0 30.0)
           (-30.0 30.0)
  end
  begin
     id 17 
     name lclavicle
     direction 0.924239 0.361045 0.124212  
     length 3.26878  
     axis 0 0 0   XYZ
    dof ry rz
    limits (-20.0 10.0)
           (0.0 20.0)
  end
  begin
     id 18 
     name lhumerus
     direction 1 -4.48968e-011 -2.56583e-027   
     length 4.58538   
     axis 180 -30 -90   XYZ
    dof rx ry rz
    limits (-60.0 90.0)
           (-90.0 90.0)
           (-90.0 90.0)
  end
  begin
     id 19
     name lradius
     direction 1 -4.4898e-011 -5.50375e-027   
     length 2.68935   
     axis 180 -30 -90   XYZ
    dof rx
    limits (-10.0 170.0)
  end
  begin
     id 20
     name lwrist
     direction 1 -4.48939e-011 -1.48955e-026   
     length 1.34468   
     axis 9.0955e-015 90 90   XYZ
    dof ry
    limits (-180.0 0.0)
 end
  begin
     id 21 
     name lhand
     direction 1 -4.48936e-011 -2.97907e-026   
     length 0.585058   
     axis 1.90115e-014 90 90   XYZ
    dof rx rz
    limits (-90.0 90.0)
           (-45.0 45.0)
  end
  begin
     id 22 
     name lfingers
     direction 1 -4.49082e-011 -5.96235e-026   
     length 0.471689   
     axis 3.80223e-014 90 90   XYZ
    dof rx
    limits (0.0 90.0)
  end
  begin
     id 23
     name lthumb
     direction 0.707107 -6.3489e-011 0.707107   
     length 0.677253   
     axis -90 45 -3.84942e-014   XYZ
    dof rx rz
    limits (-45.0 45.0)
           (-45.0 45.0)
  end
  begin
     id 24 
     name rclavicle
     direction -0.923098 0.371783 0.0983239   
     length 3.19656  
     axis 0 0 0   XYZ 
    dof ry rz
    limits (-10.0 20.0)
           (-20.0 0.0)
  end
  begin
     id 25 
     name rhumerus
     direction -1 -4.48976e-011 -2.5492e-027  
     length 4.4745   
     axis 180 30 90   XYZ
    dof rx ry rz
    limits (-90.0 60.0)
           (-90.0 90.0)
           (-90.0 90.0)
  end
  begin
     id 26 
     name rradius
     direction -1 -4.48941e-011 -4.36555e-027   
     length 2.93896   
     axis 180 30 90   XYZ
    dof rx
    limits (-10.0 170.0)
  end
  begin
     id 27 
     name rwrist
     direction -1 -4.49044e-011 -1.49032e-026   
     length 1.46948   
     axis 9.0955e-015 -90 -90   XYZ
    dof ry
    limits (-180.0 0.0)
  end
  begin
     id 28
     name rhand
     direction -1 -4.48826e-011 -2.97749e-026   
     length 0.405092   
     axis 1.90115e-014 -90 -90   XYZ
    dof rx rz
    limits (-90.0 90.0)
           (-45.0 45.0)
  end
  begin
     id 29
     name rfingers
     direction -1 -4.49209e-011 -5.96602e-026   
     length 0.326596   
     axis 3.80223e-014 -90 -90   XYZ
    dof rx
    limits (0.0 90.0)
  end
  begin
     id 30
     name rthumb
     direction -0.707107 -6.34776e-011 0.707107   
     length 0.468928   
     axis -90 -45 3.84942e-014   XYZ
    dof rx rz
    limits (-45.0 45.0)
           (-45.0 45.0)
  end
:hierarchy
  begin
    root lhipjoint rhipjoint lowerback
    lhipjoint lfemur
    lfemur ltibia
    ltibia lfoot
    lfoot ltoes
    rhipjoint rfemur
    rfemur rtibia
    rtibia rfoot
    rfoot rtoes
    lowerback upperback
    upperback thorax
    thorax lowerneck lclavicle rclavicle
    lowerneck upperneck
    upperneck head
    lclavicle lhumerus
    lhumerus lradius
    lradius lwrist
    lwrist lhand lthumb
    lhand lfingers
    rclavicle rhumerus
    rhumerus rradius
    rradius rwrist
    rwrist rhand rthumb
    rhand rfingers
  end

#!OML:ASF H:\Punching\Project 1\Capture day 1\Session 1\female.ASF
:FULLY-SPECIFIED
:DEGREES
355
root 1.29606 15.105 3.13015 13.2918 -27.8463 -4.55874
lowerback 3.56445 -1.85609 -1.99209
upperback -5.54061 -2.62218 0.714775
thorax -7.67561 -1.16333 2.1311
lowerneck -5.66246 6.88501 18.4595
upperneck 31.2976 5.356 2.67128
head 11.948 4.68439 -1.45274
rclavicle -1.69961e-014 1.35174e-014
rhumerus 9.39586 11.1398 -74.2437
rradius 135.517
rwrist -48.0418
rhand -10.1427 -22.8813
rfingers 7.12502
rthumb 15.8462 -52.2528
lclavicle -1.69961e-014 1.35174e-014
lhumerus 24.6007 -40.1963 75.2908
lradius 137.944
lwrist 9.49516
lhand -29.5783 9.7603
lfingers 7.12502
lthumb -2.91021 39.7202
rfemur -1.07268 9.61721 6.53268
rtibia 7.60519
rfoot -14.9528 -12.739
rtoes -17.9109
lfemur -34.825 7.85768 -7.8227
ltibia 47.0609
lfoot -16.6189 25.5046
ltoes 0.459383
356
root 1.29538 15.0959 3.12877 13.2883 -27.2094 -4.60586
lowerback 3.51304 -1.99972 -1.95644
upperback -5.54959 -2.80023 0.885266
thorax -7.63979 -1.24823 2.30518
lowerneck -5.8667 6.74615 18.225
upperneck 31.3058 5.12374 2.77282
head 11.9546 4.56813 -1.40458
rclavicle 4.79568e-015 6.36111e-015
rhumerus 10.0244 10.1208 -73.4331
rradius 135.035
rwrist -47.7297
rhand -10.7798 -23.2237
rfingers 7.12502
rthumb 15.2326 -52.6429
lclavicle 4.79568e-015 6.36111e-015
lhumerus 24.5259 -40.3994 75.6444
lradius 137.777
lwrist 9.31739
lhand -29.5667 9.68039
lfingers 7.12502
lthumb -2.89901 39.6404
rfemur -0.484534 9.36706 6.74939
rtibia 7.0196
rfoot -14.8163 -12.9115
rtoes -17.9784
lfemur -35.0821 7.52644 -7.6366
ltibia 47.1866
lfoot -16.4142 25.0353
ltoes -0.164099
357
root 1.29323 15.088 3.12666 13.2604 -26.4039 -4.59324
lowerback 3.44081 -2.11018 -1.93838
upperback -5.56036 -2.93553 1.04184
thorax -7.59511 -1.3117 2.46912
lowerneck -6.10696 6.5401 17.9013
upperneck 31.2848 4.79305 2.92998
head 11.9427 4.40373 -1.33473
rclavicle 1.32328e-013 4.53229e-014
rhumerus 10.7514 9.05527 -72.5651
rradius 134.312
rwrist -47.0995
rhand -11.2606 -23.5799
rfingers 7.12502
rthumb 14.7694 -53.0337
lclavicle 1.32328e-013 4.53229e-014
lhumerus 24.4274 -40.683 76.0258
lradius 137.609
lwrist 9.17309
lhand -29.5658 9.60332
lfingers 7.12502
lthumb -2.8981 39.5634
rfemur 0.142004 8.94252 6.96298
rtibia 6.49281
rfoot -14.7292 -13.0795
rtoes -17.9937
lfemur -35.3627 7.17285 -7.52078
ltibia 47.2109
lfoot -16.1614 24.4763
ltoes -0.809482
358
root 1.28958 15.0811 3.12332 13.2144 -25.4165 -4.51669
lowerback 3.34441 -2.1929 -1.93753
upperback -5.5701 -3.03539 1.18185
thorax -7.53664 -1.35756 2.62034
lowerneck -6.39847 6.26938 17.4946
upperneck 31.2347 4.36706 3.13344
head 11.9178 4.19253 -1.24648
rclavicle 6.68786e-014 -9.54166e-015
rhumerus 11.5595 7.91094 -71.6488
rradius 133.368
rwrist -46.2375
rhand -11.4781 -23.9435
rfingers 7.12502
rthumb 14.5598 -53.4125
lclavicle 6.68786e-014 -9.54166e-015
lhumerus 24.3212 -41.041 76.4141
lradius 137.453
lwrist 9.07501
lhand -29.5792 9.53975
lfingers 7.12502
lthumb -2.91105 39.4996
rfemur 0.784633 8.32943 7.16599
rtibia 6.05609
rfoot -14.7025 -13.2398
rtoes -17.9735
lfemur -35.6873 6.79675 -7.49001
ltibia 47.1377
lfoot -15.8522 23.84
ltoes -1.43783
359
root 1.28434 15.0754 3.11909 13.1548 -24.2456 -4.37372
lowerback 3.22293 -2.25053 -1.95211
upperback -5.58583 -3.10343 1.30338
thorax -7.47168 -1.38758 2.75648
lowerneck -6.72077 5.93283 17.0054
upperneck 31.1527 3.8519 3.37711
head 11.8774 3.93642 -1.14179
rclavicle -3.12403e-014 -1.07344e-014
rhumerus 12.4089 6.64264 -70.6818
rradius 132.25
rwrist -45.2897
rhand -11.356 -24.3437
rfingers 7.12502
rthumb 14.6775 -53.8042
lclavicle -3.12403e-014 -1.07344e-014
lhumerus 24.1946 -41.4697 76.8096
lradius 137.318
lwrist 9.03105
lhand -29.5773 9.46939
lfingers 7.12502
lthumb -2.90927 39.4293
rfemur 1.4334 7.52457 7.3483
rtibia 5.72168
rfoot -14.7401 -13.3847
rtoes -17.94
lfemur -36.0629 6.3921 -7.55386
ltibia 46.9742
lfoot -15.4896 23.1378
ltoes -2.00577
360
root 1.27749 15.0709 3.11394 13.0848 -22.8893 -4.15383
lowerback 3.07553 -2.29396 -1.99176
upperback -5.60671 -3.15515 1.40126
thorax -7.39793 -1.40903 2.87889
lowerneck -7.08668 5.53832 16.4534
upperneck 31.0545 3.25738 3.64361
head 11.8347 3.64106 -1.028
rclavicle -1.57475e-014 6.75868e-015
rhumerus 13.2933 5.27213 -69.6884
rradius 130.968
rwrist -44.3239
rhand -10.9083 -24.7075
rfingers 7.12502
rthumb 15.1088 -54.136
lclavicle -1.57475e-014 6.75868e-015
lhumerus 24.0541 -41.945 77.1831
lradius 137.21
lwrist 9.04578
lhand -29.554 9.39489
lfingers 7.12502
lthumb -2.88672 39.3551
rfemur 2.07744 6.52276 7.49309
rtibia 5.50364
rfoot -14.8475 -13.5081
rtoes -17.918
lfemur -36.4988 5.94452 -7.72346
ltibia 46.7295
lfoot -15.0735 22.372
ltoes -2.47348
361
root 1.26866 15.0675 3.10783 13.0146 -21.3628 -3.8766
lowerback 2.90928 -2.31834 -2.04593
upperback -5.62974 -3.18306 1.47722
thorax -7.31733 -1.41873 2.98317
lowerneck -7.51667 5.08727 15.8487
upperneck 30.9523 2.5828 3.92277
head 11.8014 3.30716 -0.909727
rclavicle -9.36152e-015 -1.19271e-015
rhumerus 14.2036 3.78704 -68.6691
rradius 129.547
rwrist -43.452
rhand -10.1891 -25.0408
rfingers 7.12502
rthumb 15.8016 -54.4158
lclavicle -9.36152e-015 -1.19271e-015
lhumerus 23.9145 -42.4617 77.5185
lradius 137.126
lwrist 9.11635
lhand -29.5277 9.33183
lfingers 7.12502
lthumb -2.86134 39.2924
rfemur 2.72117 5.34256 7.61339
rtibia 5.37976
rfoot -15.0088 -13.6018
rtoes -17.9208
lfemur -36.9924 5.46173 -7.97642
ltibia 46.4164
lfoot -14.5925 21.5327
ltoes -2.85288
362
root 1.25792 15.0653 3.10071 12.9497 -19.6877 -3.55205
lowerback 2.73115 -2.31499 -2.09639
upperback -5.67583 -3.1754 1.51836
thorax -7.25896 -1.41147 3.04603
lowerneck -7.9265 4.56714 15.2011
upperneck 30.8282 1.82537 4.22195
head 11.756 2.93339 -0.788361
rclavicle 3.99619e-014 -1.03368e-014
rhumerus 15.0749 2.18886 -67.6352
rradius 128.012
rwrist -42.7561
rhand -9.29551 -25.3417
rfingers 7.12502
rthumb 16.662 -54.6466
lclavicle 3.99619e-014 -1.03368e-014
lhumerus 23.7353 -43.094 77.8099
lradius 137.051
lwrist 9.0813
lhand -29.5962 9.38989
lfingers 7.12502
lthumb -2.92753 39.3495
rfemur 3.37071 4.00697 7.70874
rtibia 5.32398
rfoot -15.2111 -13.6569
rtoes -17.9306
lfemur -37.5359 4.94742 -8.29913
ltibia 46.0474
lfoot -14.0494 20.6072
ltoes -3.15998
363
root 1.24543 15.0639 3.09313 12.8932 -17.8845 -3.19045
lowerback 2.54341 -2.27979 -2.13381
upperback -5.74216 -3.12616 1.52077
thorax -7.22229 -1.38488 3.05796
lowerneck -8.29804 3.98132 14.5125
upperneck 30.6699 0.991712 4.54978
head 11.6927 2.52282 -0.660109
rclavicle -1.14798e-014 -3.18055e-015
rhumerus 15.8963 0.480695 -66.5777
rradius 126.386
rwrist -42.3256
rhand -8.3539 -25.6417
rfingers 7.12502
rthumb 17.5683 -54.8679
lclavicle -1.14798e-014 -3.18055e-015
lhumerus 23.5126 -43.7996 78.0742
lradius 136.981
lwrist 9.01492
lhand -29.6842 9.49025
lfingers 7.12502
lthumb -3.01249 39.4487
rfemur 4.05472 2.53845 7.77746
rtibia 5.27697
rfoot -15.4199 -13.6649
rtoes -17.9722
lfemur -38.116 4.39934 -8.67703
ltibia 45.6384
lfoot -13.4572 19.5906
ltoes -3.4281
364
root 1.23148 15.0629 3.08514 12.849 -15.9804 -2.80433
lowerback 2.35263 -2.21299 -2.16195
upperback -5.81804 -3.03515 1.49602
thorax -7.19879 -1.33849 3.03337
lowerneck -8.65414 3.3429 13.7759
upperneck 30.4841 0.0984062 4.902
head 11.622 2.08218 -0.522319
rclavicle 3.12775e-014 -1.15295e-014
rhumerus 16.7057 -1.29813 -65.4759
rradius 124.652
rwrist -42.1826
rhand -7.54003 -25.9238
rfingers 7.12502
rthumb 18.3514 -55.0782
lclavicle 3.12775e-014 -1.15295e-014
lhumerus 23.2746 -44.5524 78.294
lradius 136.907
lwrist 8.87694
lhand -29.8141 9.67657
lfingers 7.12502
lthumb -3.13794 39.6332
rfemur 4.78372 0.966684 7.81897
rtibia 5.2003
rfoot -15.6203 -13.6243
rtoes -18.005
lfemur -38.7217 3.83161 -9.09759
ltibia 45.2046
lfoot -12.8303 18.4775
ltoes -3.69481
365
root 1.21636 15.0614 3.0775 12.8167 -14.0018 -2.41325
lowerback 2.16905 -2.11648 -2.17008
upperback -5.90983 -2.90393 1.45439
thorax -7.20096 -1.27303 2.9781
lowerneck -8.97607 2.65715 12.9943
upperneck 30.2865 -0.842841 5.26804
head 11.5492 1.61626 -0.377695
rclavicle -5.05503e-014 -1.27222e-014
rhumerus 17.4998 -3.1077 -64.3155
rradius 122.809
rwrist -42.3505
rhand -6.97765 -26.2359
rfingers 7.12502
rthumb 18.8923 -55.3384
lclavicle -5.05503e-014 -1.27222e-014
lhumerus 22.9884 -45.3087 78.5087
lradius 136.823
lwrist 8.69751
lhand -29.9404 9.91447
lfingers 7.12502
lthumb -3.25989 39.8693
rfemur 5.58222 -0.676986 7.83967
rtibia 5.04197
rfoot -15.7971 -13.5358
rtoes -17.9864
lfemur -39.3354 3.25583 -9.54083
ltibia 44.7626
lfoot -12.1954 17.2714
ltoes -3.96563
